<svg xmlns="http://www.w3.org/2000/svg" xmlns:xlink="http://www.w3.org/1999/xlink" width="150" zoomAndPan="magnify" viewBox="0 0 112.5 112.499997" height="150" preserveAspectRatio="xMidYMid meet" version="1.0"><defs><g/><clipPath id="e216ac2503"><path d="M 38.496094 11.199219 L 69.109375 11.199219 L 69.109375 41.8125 L 38.496094 41.8125 Z M 38.496094 11.199219 " clip-rule="nonzero"/></clipPath></defs><g clip-path="url(#e216ac2503)"><path fill="#ffffff" d="M 69.058594 26.484375 C 57.597656 28.59375 55.886719 30.304688 53.777344 41.765625 C 51.667969 30.304688 49.957031 28.59375 38.496094 26.484375 C 49.957031 24.371094 51.667969 22.660156 53.777344 11.199219 C 55.886719 22.660156 57.597656 24.371094 69.058594 26.484375 Z M 69.058594 26.484375 " fill-opacity="1" fill-rule="nonzero"/></g><g fill="#ffffff" fill-opacity="1"><g transform="translate(10.091129, 87.158177)"><g><path d="M 24.40625 -46.765625 C 27.644531 -46.765625 30.65625 -46.160156 33.4375 -44.953125 C 36.21875 -43.742188 38.675781 -42.054688 40.8125 -39.890625 C 42.957031 -37.734375 44.625 -35.226562 45.8125 -32.375 C 47 -29.53125 47.59375 -26.460938 47.59375 -23.171875 C 47.59375 -19.890625 47 -16.820312 45.8125 -13.96875 C 44.625 -11.125 42.957031 -8.617188 40.8125 -6.453125 C 38.675781 -4.296875 36.21875 -2.597656 33.4375 -1.359375 C 30.65625 -0.128906 27.644531 0.484375 24.40625 0.484375 C 21.21875 0.484375 18.222656 -0.128906 15.421875 -1.359375 C 12.617188 -2.597656 10.15625 -4.296875 8.03125 -6.453125 C 5.914062 -8.617188 4.253906 -11.125 3.046875 -13.96875 C 1.835938 -16.820312 1.234375 -19.890625 1.234375 -23.171875 C 1.234375 -26.460938 1.835938 -29.53125 3.046875 -32.375 C 4.253906 -35.226562 5.914062 -37.734375 8.03125 -39.890625 C 10.15625 -42.054688 12.617188 -43.742188 15.421875 -44.953125 C 18.222656 -46.160156 21.21875 -46.765625 24.40625 -46.765625 Z M 35.96875 -4.578125 C 37.289062 -5.398438 37.960938 -6.984375 37.984375 -9.328125 C 38.003906 -11.679688 37.46875 -14.460938 36.375 -17.671875 C 35.28125 -20.890625 33.660156 -24.1875 31.515625 -27.5625 C 29.421875 -30.976562 27.175781 -33.894531 24.78125 -36.3125 C 22.394531 -38.726562 20.140625 -40.4375 18.015625 -41.4375 C 15.898438 -42.4375 14.179688 -42.523438 12.859375 -41.703125 C 11.578125 -40.890625 10.910156 -39.316406 10.859375 -36.984375 C 10.816406 -34.660156 11.351562 -31.890625 12.46875 -28.671875 C 13.59375 -25.460938 15.203125 -22.148438 17.296875 -18.734375 C 19.441406 -15.316406 21.707031 -12.398438 24.09375 -9.984375 C 26.488281 -7.566406 28.742188 -5.867188 30.859375 -4.890625 C 32.984375 -3.910156 34.6875 -3.804688 35.96875 -4.578125 Z M 35.96875 -4.578125 "/></g></g></g><g fill="#ffffff" fill-opacity="1"><g transform="translate(58.90589, 87.158177)"><g><path d="M 1.234375 -32.75 C 1.234375 -35.257812 1.90625 -37.570312 3.25 -39.6875 C 4.59375 -41.8125 6.414062 -43.519531 8.71875 -44.8125 C 11.019531 -46.113281 13.609375 -46.765625 16.484375 -46.765625 C 18.171875 -46.765625 19.671875 -46.503906 20.984375 -45.984375 C 22.304688 -45.460938 23.503906 -44.847656 24.578125 -44.140625 C 25.648438 -43.429688 26.640625 -42.8125 27.546875 -42.28125 C 28.460938 -41.757812 29.332031 -41.5 30.15625 -41.5 C 31.882812 -41.5 33 -41.941406 33.5 -42.828125 C 34 -43.722656 34.25 -44.921875 34.25 -46.421875 L 35.828125 -46.421875 C 36.054688 -44.554688 36.078125 -42.628906 35.890625 -40.640625 C 35.710938 -38.660156 35.210938 -36.828125 34.390625 -35.140625 C 33.566406 -33.453125 32.359375 -32.082031 30.765625 -31.03125 C 29.171875 -29.988281 27.097656 -29.46875 24.546875 -29.46875 C 22.859375 -29.46875 21.363281 -29.84375 20.0625 -30.59375 C 18.769531 -31.34375 17.597656 -32.273438 16.546875 -33.390625 C 15.492188 -34.515625 14.546875 -35.65625 13.703125 -36.8125 C 12.859375 -37.976562 12.035156 -38.984375 11.234375 -39.828125 C 10.441406 -40.671875 9.625 -41.179688 8.78125 -41.359375 C 7.9375 -41.546875 7.015625 -41.226562 6.015625 -40.40625 C 4.921875 -39.5 4.75 -38.375 5.5 -37.03125 C 6.25 -35.6875 7.832031 -34.316406 10.25 -32.921875 C 12.664062 -31.535156 15.789062 -30.296875 19.625 -29.203125 C 21.082031 -28.785156 22.800781 -28.203125 24.78125 -27.453125 C 26.769531 -26.703125 28.71875 -25.722656 30.625 -24.515625 C 32.539062 -23.304688 34.132812 -21.832031 35.40625 -20.09375 C 36.6875 -18.363281 37.328125 -16.316406 37.328125 -13.953125 C 37.328125 -11.398438 36.644531 -9.03125 35.28125 -6.84375 C 33.914062 -4.65625 32.066406 -2.882812 29.734375 -1.53125 C 27.410156 -0.1875 24.769531 0.484375 21.8125 0.484375 C 20.125 0.484375 18.570312 0.210938 17.15625 -0.328125 C 15.75 -0.878906 14.453125 -1.5 13.265625 -2.1875 C 12.078125 -2.875 10.984375 -3.488281 9.984375 -4.03125 C 8.984375 -4.582031 8.046875 -4.859375 7.171875 -4.859375 C 5.492188 -4.859375 4.390625 -4.410156 3.859375 -3.515625 C 3.335938 -2.628906 3.078125 -1.4375 3.078125 0.0625 L 1.578125 0.0625 C 1.296875 -1.800781 1.257812 -3.722656 1.46875 -5.703125 C 1.675781 -7.691406 2.1875 -9.53125 3 -11.21875 C 3.820312 -12.90625 5.03125 -14.269531 6.625 -15.3125 C 8.226562 -16.363281 10.28125 -16.890625 12.78125 -16.890625 C 14.46875 -16.890625 15.992188 -16.507812 17.359375 -15.75 C 18.734375 -15 19.976562 -14.054688 21.09375 -12.921875 C 22.207031 -11.785156 23.242188 -10.632812 24.203125 -9.46875 C 25.160156 -8.300781 26.070312 -7.296875 26.9375 -6.453125 C 27.800781 -5.617188 28.664062 -5.109375 29.53125 -4.921875 C 30.40625 -4.742188 31.316406 -5.0625 32.265625 -5.875 C 33.359375 -6.832031 33.414062 -8.019531 32.4375 -9.4375 C 31.457031 -10.851562 29.679688 -12.289062 27.109375 -13.75 C 24.535156 -15.207031 21.3125 -16.503906 17.4375 -17.640625 C 14.332031 -18.554688 11.550781 -19.601562 9.09375 -20.78125 C 6.632812 -21.96875 4.707031 -23.503906 3.3125 -25.390625 C 1.925781 -27.285156 1.234375 -29.738281 1.234375 -32.75 Z M 1.234375 -32.75 "/></g></g></g></svg>